# xmcd
#
# Track frame offsets: 
#        150
#        40956
#        58075
#        89387
#        110883
#        131265
#        147560
#        188238
#
# Disc length: 3017 seconds
#
# Revision: 0
# Processed by: cddbd v1.5.2PL0 Copyright (c) Steve Scherf et al.
# Submitted via: ExactAudioCopy v1.2
#
DISCID=770bc708
DTITLE=Robert Kimbrough, Sr. - I Been Fixed
DYEAR=2018
DGENRE=Blues
TTITLE0=That's All You Got
TTITLE1=Blues Show
TTITLE2=Laugh at Me
TTITLE3=Get Yo Woman
TTITLE4=I Been Fixed
TTITLE5=I'm a Blues Man
TTITLE6=That's Why I Still Love You
TTITLE7=In Remembrance of Momma
EXTD=
EXTT0=
EXTT1=
EXTT2=
EXTT3=
EXTT4=
EXTT5=
EXTT6=
EXTT7=
PLAYORDER=
